<svg width="22" height="22" viewBox="0 0 22 22" fill="none" xmlns="http://www.w3.org/2000/svg">
<g id="Navigation / Map_Pin">
<g id="Vector">
<path d="M4.58333 9.09595C4.58333 13.5434 8.4741 17.2213 10.1963 18.6314C10.4427 18.8333 10.5674 18.9354 10.7513 18.9871C10.8945 19.0274 11.1052 19.0274 11.2484 18.9871C11.4326 18.9353 11.5565 18.8342 11.8039 18.6316C13.526 17.2215 17.4166 13.5439 17.4166 9.09636C17.4166 7.41325 16.7406 5.79888 15.5372 4.60875C14.3339 3.41861 12.7019 2.75 11.0001 2.75C9.29826 2.75 7.66608 3.41871 6.46273 4.60885C5.25937 5.79898 4.58333 7.41284 4.58333 9.09595Z" stroke="white" stroke-width="2" stroke-linecap="round" stroke-linejoin="round"/>
<path d="M9.16666 8.25C9.16666 9.26252 9.98747 10.0833 11 10.0833C12.0125 10.0833 12.8333 9.26252 12.8333 8.25C12.8333 7.23748 12.0125 6.41667 11 6.41667C9.98747 6.41667 9.16666 7.23748 9.16666 8.25Z" stroke="white" stroke-width="2" stroke-linecap="round" stroke-linejoin="round"/>
</g>
</g>
</svg>
