<svg width="18" height="18" viewBox="0 0 18 18" fill="none" xmlns="http://www.w3.org/2000/svg">
<path d="M7.50015 3.75H6.15015C5.31007 3.75 4.88972 3.75 4.56885 3.91349C4.2866 4.0573 4.0573 4.2866 3.91349 4.56885C3.75 4.88972 3.75 5.31007 3.75 6.15015V11.8501C3.75 12.6902 3.75 13.11 3.91349 13.4309C4.0573 13.7132 4.2866 13.9429 4.56885 14.0867C4.8894 14.25 5.30925 14.25 6.14768 14.25H11.8523C12.6908 14.25 13.11 14.25 13.4305 14.0867C13.7128 13.9429 13.9429 13.7129 14.0867 13.4307C14.25 13.1101 14.25 12.6908 14.25 11.8523V10.5M15 6.75V3M15 3H11.25M15 3L9.75 8.25" stroke="white" stroke-width="2" stroke-linecap="round" stroke-linejoin="round"/>
</svg>
